:SAMPLES-PER-SECOND 30
:FULLY-SPECIFIED
:DEGREES
150
root  -69.0675 41.687 -9.5295 -171.201 -87.2348 171.939
RightUpLeg  -1.10997 -7.20516 -4.57888
RightLeg  2.45871 -5.53106 3.2119
RightFoot  -0.0681224 0.0657755 -0.671847
RightToes  1.74622e-010 0 -3.6325e-017
Spine  2.05193 -0.55858 1.71028
Spine1  0.517234 0.0870807 -3.45519
HEad  -8.10361 3.82263 0.636713
LeftShoulder1  0.821502 -1.89224 -7.59839
LeftArm  -18.2944 5.2121 1.4785
LeftForeArm  12.9284 -5.50635 -2.29745
LeftHand  -0.244104 0.0205437 5.32207
RightShoulder  0.655919 0.613479 8.48923
RightArm  -23.0988 -0.38394 -1.67755
RightForeArm  -11.821 4.50496 3.77792
RightHand  -1.38847 3.83226 -17.608
LeftUpLeg  -1.49905 5.1928 3.12031
LeftLeg  1.84979 11.3211 -4.10027
LeftFoot  -1.02473 -0.0759585 0.912793
LeftToes  -6.36679e-011 4.33698e-011 -8.22343e-012
151
root  -69.1354 41.6871 -9.5284 -173.232 -86.9466 174.03
RightUpLeg  -1.04877 -7.13712 -4.49658
RightLeg  2.34255 -5.30546 3.21129
RightFoot  -0.0879367 0.0635006 -0.659844
RightToes  1.74622e-010 0 -3.6325e-017
Spine  2.2236 -0.494205 1.54891
Spine1  0.285462 0.0772574 -3.0813
HEad  -8.48817 3.97129 0.552166
LeftShoulder1  0.870761 -2.04844 -8.08947
LeftArm  -17.8073 5.08005 1.55951
LeftForeArm  12.6867 -4.94913 -2.42384
LeftHand  -0.244104 0.0205437 5.32207
RightShoulder  0.674113 0.811716 8.15818
RightArm  -22.9524 -0.198562 -1.37555
RightForeArm  -10.6844 3.59153 3.6038
RightHand  -1.25924 3.2148 -17.1188
LeftUpLeg  -1.47299 5.25505 3.19729
LeftLeg  1.98272 11.5651 -4.06592
LeftFoot  -1.17293 -0.0705651 0.884515
LeftToes  -6.36679e-011 4.33698e-011 -8.22343e-012
152
root  -69.2023 41.687 -9.52346 -175.244 -86.7464 176.102
RightUpLeg  -0.931921 -7.06762 -4.40239
RightLeg  2.14129 -5.16727 3.23007
RightFoot  -0.0760278 0.0618838 -0.650949
RightToes  1.74622e-010 0 -3.6325e-017
Spine  2.56078 -0.363927 1.50369
Spine1  -0.416613 0.102447 -2.59173
HEad  -8.27936 4.19523 0.0666817
LeftShoulder1  1.05201 -2.8389 -9.13849
LeftArm  -17.5392 5.26745 2.16065
LeftForeArm  13.3738 -4.07963 -2.32462
LeftHand  -0.244104 0.0205437 5.32207
RightShoulder  0.675709 1.08992 7.11717
RightArm  -22.6384 -0.751186 -0.6277
RightForeArm  -9.6239 2.80641 3.42874
RightHand  -1.20386 2.97911 -16.8312
LeftUpLeg  -1.47313 5.31323 3.28506
LeftLeg  2.15282 11.7277 -3.99768
LeftFoot  -1.38196 -0.061755 0.809553
LeftToes  -6.36679e-011 4.33698e-011 -8.22343e-012
153
root  -69.2667 41.6868 -9.52463 -176.301 -86.5381 177.249
RightUpLeg  -0.902137 -7.00728 -4.32988
RightLeg  2.03022 -5.02424 3.22254
RightFoot  -0.0861143 0.0599408 -0.631954
RightToes  1.74622e-010 0 -3.6325e-017
Spine  2.49334 -0.351319 1.44282
Spine1  -0.277172 0.0767841 -2.3727
HEad  -8.3944 4.37609 -0.114458
LeftShoulder1  1.07364 -2.77178 -9.68898
LeftArm  -17.7535 5.11044 2.23157
LeftForeArm  14.2982 -3.27054 -2.10472
LeftHand  -0.244104 0.0205437 5.32207
RightShoulder  0.662425 1.00561 7.09113
RightArm  -22.4372 -0.510221 -0.464215
RightForeArm  -8.55676 2.16255 3.34676
RightHand  -1.27846 3.55468 -16.7372
LeftUpLeg  -1.47875 5.37905 3.3548
LeftLeg  2.24525 11.8671 -3.98477
LeftFoot  -1.56847 -0.0551844 0.756222
LeftToes  -6.36679e-011 4.33698e-011 -8.22343e-012
154
root  -69.3297 41.6866 -9.53416 -176.467 -86.2662 177.524
RightUpLeg  -0.960193 -6.96237 -4.29153
RightLeg  2.03647 -4.81183 3.19541
RightFoot  -0.144974 0.0575488 -0.603034
RightToes  1.74622e-010 0 -3.6325e-017
Spine  2.31871 -0.460935 1.5325
Spine1  0.0654589 0.0690533 -2.90643
HEad  -8.56439 4.37569 0.407453
LeftShoulder1  0.9268 -2.2153 -8.71053
LeftArm  -17.8705 5.30756 1.25481
LeftForeArm  14.7767 -2.8094 -1.96246
LeftHand  -0.244104 0.0205437 5.32207
RightShoulder  0.728103 1.03535 8.61406
RightArm  -22.2139 0.0356215 -1.4014
RightForeArm  -8.34189 1.99488 3.41838
RightHand  -1.30705 3.66647 -16.9043
LeftUpLeg  -1.44848 5.43028 3.38941
LeftLeg  2.23256 12.0781 -4.01383
LeftFoot  -1.68072 -0.0517727 0.732496
LeftToes  -6.36679e-011 4.33698e-011 -8.22343e-012
155
root  -69.3869 41.6863 -9.5445 -176.321 -86.0572 177.487
RightUpLeg  -1.01943 -6.94229 -4.28157
RightLeg  2.0461 -4.63501 3.18825
RightFoot  -0.2138 0.0556855 -0.581458
RightToes  1.74622e-010 0 -3.6325e-017
Spine  2.08957 -0.462151 1.08091
Spine1  0.578157 -0.0536037 -2.2074
HEad  -8.75887 4.45804 0.130577
LeftShoulder1  0.902485 -1.86219 -9.35787
LeftArm  -17.6395 5.35927 1.40748
LeftForeArm  14.5966 -2.52422 -2.00815
LeftHand  -0.244104 0.0205437 5.32207
RightShoulder  0.659854 0.653834 8.42342
RightArm  -22.3268 0.491872 -1.17956
RightForeArm  -8.98458 2.04379 3.46525
RightHand  -1.23466 2.89715 -17.4132
LeftUpLeg  -1.41419 5.40327 3.37158
LeftLeg  2.1673 12.3139 -3.98964
LeftFoot  -1.74315 -0.0458133 0.671355
LeftToes  -6.36679e-011 4.33698e-011 -8.22343e-012
156
root  -69.4342 41.6859 -9.55005 -176.112 -85.999 177.383
RightUpLeg  -1.04541 -6.94515 -4.28878
RightLeg  2.00967 -4.5766 3.2044
RightFoot  -0.257152 0.0550553 -0.580252
RightToes  1.74622e-010 0 -3.6325e-017
Spine  2.12274 -0.543625 1.03003
Spine1  0.495649 -0.125859 -2.27833
HEad  -8.51273 4.67372 0.123457
LeftShoulder1  0.876436 -1.81384 -8.98893
LeftArm  -16.8536 5.73625 1.03322
LeftForeArm  13.477 -1.80483 -2.21614
LeftHand  -0.244104 0.0205437 5.32207
RightShoulder  0.697752 0.796194 8.82358
RightArm  -22.1828 0.525354 -1.47276
RightForeArm  -9.5158 1.78995 3.48314
RightHand  -1.18658 2.3952 -17.7827
LeftUpLeg  -1.41814 5.29956 3.30804
LeftLeg  2.10159 12.4812 -3.89375
LeftFoot  -1.78155 -0.0363121 0.562235
LeftToes  -6.36679e-011 4.33698e-011 -8.22343e-012
157
root  -69.477 41.6856 -9.55449 -175.921 -85.961 177.269
RightUpLeg  -1.04905 -6.9467 -4.29434
RightLeg  1.97542 -4.53766 3.20969
RightFoot  -0.290722 0.0549938 -0.587785
RightToes  1.74622e-010 0 -3.6325e-017
Spine  2.08896 -0.56436 1.21037
Spine1  0.507944 -0.0980109 -2.54438
HEad  -8.2232 4.6619 0.165946
LeftShoulder1  0.898508 -1.95337 -8.97218
LeftArm  -16.1846 5.87605 1.07482
LeftForeArm  12.8544 -1.32231 -2.42359
LeftHand  -0.244104 0.0205437 5.32207
RightShoulder  0.718881 0.892282 8.96482
RightArm  -22.4413 0.381408 -1.49919
RightForeArm  -8.55849 1.45365 3.27008
RightHand  -1.21402 2.66587 -17.6001
LeftUpLeg  -1.41285 5.20432 3.24764
LeftLeg  2.05014 12.6218 -3.80367
LeftFoot  -1.80984 -0.027513 0.457865
LeftToes  -6.36679e-011 4.33698e-011 -8.22343e-012
158
root  -69.524 41.6853 -9.5635 -175.797 -85.8022 177.184
RightUpLeg  -1.04266 -6.92983 -4.28866
RightLeg  1.98534 -4.40201 3.19045
RightFoot  -0.346994 0.0553639 -0.593534
RightToes  1.74622e-010 0 -3.6325e-017
Spine  2.02496 -0.535948 1.65645
Spine1  0.504381 0.0666183 -3.27626
HEad  -7.88899 4.39086 0.558458
LeftShoulder1  0.924009 -2.23624 -8.58477
LeftArm  -15.864 6.23831 1.01036
LeftForeArm  12.9562 -1.39418 -2.50307
LeftHand  -0.244104 0.0205437 5.32207
RightShoulder  0.77522 1.12427 9.39983
RightArm  -22.8315 0.0138913 -1.67623
RightForeArm  -7.35898 1.3255 3.00243
RightHand  -1.21209 2.824 -17.2463
LeftUpLeg  -1.33969 5.16551 3.22062
LeftLeg  2.00569 12.826 -3.76183
LeftFoot  -1.85722 -0.0206914 0.381964
LeftToes  -6.36679e-011 4.33698e-011 -8.22343e-012
